<svg id="visual" viewBox="0 0 900 600" width="900" height="600" xmlns="http://www.w3.org/2000/svg" xmlns:xlink="http://www.w3.org/1999/xlink" version="1.1"><rect x="0" y="0" width="900" height="600" fill="#009933"></rect><defs><linearGradient id="grad1_0" x1="33.3%" y1="100%" x2="100%" y2="0%"><stop offset="20%" stop-color="#33cccc" stop-opacity="1"></stop><stop offset="80%" stop-color="#33cccc" stop-opacity="1"></stop></linearGradient></defs><defs><linearGradient id="grad1_1" x1="33.3%" y1="100%" x2="100%" y2="0%"><stop offset="20%" stop-color="#33cccc" stop-opacity="1"></stop><stop offset="80%" stop-color="#00b58a" stop-opacity="1"></stop></linearGradient></defs><defs><linearGradient id="grad1_2" x1="33.3%" y1="100%" x2="100%" y2="0%"><stop offset="20%" stop-color="#009933" stop-opacity="1"></stop><stop offset="80%" stop-color="#00b58a" stop-opacity="1"></stop></linearGradient></defs><defs><linearGradient id="grad2_0" x1="0%" y1="100%" x2="66.7%" y2="0%"><stop offset="20%" stop-color="#33cccc" stop-opacity="1"></stop><stop offset="80%" stop-color="#33cccc" stop-opacity="1"></stop></linearGradient></defs><defs><linearGradient id="grad2_1" x1="0%" y1="100%" x2="66.7%" y2="0%"><stop offset="20%" stop-color="#00b58a" stop-opacity="1"></stop><stop offset="80%" stop-color="#33cccc" stop-opacity="1"></stop></linearGradient></defs><defs><linearGradient id="grad2_2" x1="0%" y1="100%" x2="66.7%" y2="0%"><stop offset="20%" stop-color="#00b58a" stop-opacity="1"></stop><stop offset="80%" stop-color="#009933" stop-opacity="1"></stop></linearGradient></defs><g transform="translate(900, 600)"><path d="M-378.6 0C-329.8 -43.4 -280.9 -86.7 -255.5 -147.5C-230 -208.3 -228 -286.4 -189.3 -327.9C-150.6 -369.3 -75.3 -373.9 0 -378.6L0 0Z" fill="#00a862"></path><path d="M-252.4 0C-219.8 -28.9 -187.3 -57.8 -170.3 -98.3C-153.4 -138.8 -152 -191 -126.2 -218.6C-100.4 -246.2 -50.2 -249.3 0 -252.4L0 0Z" fill="#00c1ae"></path><path d="M-126.2 0C-109.9 -14.5 -93.6 -28.9 -85.2 -49.2C-76.7 -69.4 -76 -95.5 -63.1 -109.3C-50.2 -123.1 -25.1 -124.6 0 -126.2L0 0Z" fill="#33cccc"></path></g><g transform="translate(0, 0)"><path d="M378.6 0C319.1 37.2 259.7 74.5 235.6 136C211.4 197.5 222.7 283.4 189.3 327.9C155.9 372.3 78 375.5 0 378.6L0 0Z" fill="#00a862"></path><path d="M252.4 0C212.8 24.8 173.1 49.6 157 90.7C141 131.7 148.4 188.9 126.2 218.6C103.9 248.2 52 250.3 0 252.4L0 0Z" fill="#00c1ae"></path><path d="M126.2 0C106.4 12.4 86.6 24.8 78.5 45.3C70.5 65.8 74.2 94.5 63.1 109.3C52 124.1 26 125.2 0 126.2L0 0Z" fill="#33cccc"></path></g></svg>